<?xml version="1.0" encoding="UTF-8"?>
<svg id="Layer_2" data-name="Layer 2" xmlns="http://www.w3.org/2000/svg" viewBox="0 0 612.28 237.54">
  <defs>
    <style>
      .cls-1 {
        stroke-width: 0px;
      }
    </style>
  </defs>
  <g id="Layer_1-2" data-name="Layer 1">
    <g>
      <path class="cls-1" d="m233.07,82.54c.3-1.6.6-3.07.86-4.55.8-4.58,1.59-9.17,2.36-13.76.59-3.49-1.96-6.34-5.49-6.12-.8.05-1.62.26-2.39.51-2.21.71-4.41,1.49-6.61,2.23-.26.09-.53.16-.93.28.16-.94.3-1.76.44-2.61.25-.11.47-.22.7-.3,8.66-2.95,17.33-5.9,25.99-8.85,1.21-.41,2.44-.61,3.71-.33,2.6.59,4.25,2.72,4.02,5.37-.13,1.5-.44,2.98-.7,4.47-1.03,5.89-2.08,11.77-3.12,17.65-1.11,6.29-2.22,12.57-3.33,18.86-1.1,6.22-2.19,12.45-3.29,18.67-1.11,6.29-2.22,12.57-3.33,18.86-1.08,6.1-2.26,12.19-3.19,18.31-.95,6.26,1.86,11.25,6.48,13.76,1.83.99,3.79,1.51,5.87,1.61.25.01.49.04.87.07-.1.65-.2,1.25-.31,1.94-.37,0-.67,0-.98,0-5.42,0-10.83,0-16.25,0-2.62,0-5.15-.42-7.44-1.78-1.05-.62-2-1.4-3.09-2.18-.2.1-.51.24-.81.39-3.94,1.95-8.02,3.47-12.37,4.23-10.81,1.9-20.43-.75-28.83-7.73-6.09-5.06-9.87-11.61-11.62-19.31-2.03-8.97-.98-17.71,2.32-26.21,6.51-16.73,21.33-29.77,38.75-34.18,4.3-1.09,8.67-1.58,13.1-1.38,2.66.12,5.24.64,7.71,1.68.26.11.52.21.9.36Zm-2.59,13.38c.04-1.93-.02-3.84-.86-5.63-.62-1.34-1.64-2.25-3.07-2.57-.76-.17-1.57-.2-2.34-.15-2.14.16-4.1.95-6,1.87-3.21,1.56-6.16,3.55-8.93,5.79-6.21,5.01-11.54,10.88-16.26,17.29-4.76,6.47-8.38,13.52-10.37,21.34-1.36,5.36-1.89,10.78-.86,16.27.7,3.74,2.13,7.15,4.51,10.16.82,1.04,1.8,1.65,3.08,2,4.52,1.22,9.04,1.08,13.56.09,6.17-1.35,11.74-4.08,16.96-7.57.45-.3.57-.7.65-1.18.84-4.83,1.69-9.66,2.56-14.49.91-5.08,1.83-10.15,2.73-15.22,1.05-5.88,2.11-11.76,3.11-17.65.58-3.44,1.46-6.83,1.53-10.35Z"/>
      <path class="cls-1" d="m98.62,170.14c-8.41-.18-16.49-1.73-24.03-5.51-13.35-6.69-21.73-17.4-25.44-31.82-.48-1.86-.91-3.73-.96-5.66-.01-.44-.03-.88-.01-1.32.12-3.16,2.41-5,5.54-4.48,2.11.35,3.72,1.46,4.92,3.2,1.05,1.54,1.6,3.27,1.84,5.1.18,1.4.24,2.82.37,4.23.76,8.14,3.4,15.57,8.34,22.14,2.05,2.73,2.49,3.03,5.78,4.04,5.02,1.55,10.16,2.06,15.39,1.71,10.4-.7,19.93-4.14,28.73-9.55,16.04-9.86,27.63-23.55,34.63-41.05,2.56-6.38,4.06-13.03,4.4-19.91.36-7.46-.7-14.69-3.93-21.5-1.63-3.44-3.77-6.54-6.43-9.27-.43-.44-.9-.75-1.49-.94-5.83-1.83-11.8-2.53-17.89-2.23-5.51.27-10.82,1.5-16.05,3.21-4.69,1.54-9.44,2.89-14.31,3.78-2.14.39-4.28.66-6.47.51-2.62-.18-4.24-2.68-4.36-4.39-.08-1.13.37-2.09,1.09-2.93,1.07-1.25,2.45-2.05,3.91-2.75,2.64-1.26,5.38-2.29,8.17-3.17,5.22-1.64,10.55-2.67,16.01-2.97,10.46-.57,20.47,1.16,29.7,6.3,12.56,7,20.33,17.66,23.62,31.6,1.42,5.99,1.67,12.07,1.02,18.2-1.42,13.32-6.55,25.12-14.69,35.65-8.05,10.4-18.1,18.31-30.12,23.68-5.95,2.66-12.16,4.48-18.62,5.33-2.87.38-5.76.51-8.65.76Z"/>
      <path class="cls-1" d="m296.21,81.78c-.11.67-.2,1.22-.32,1.91-.34,0-.68,0-1.01,0-2.02.06-4.03.19-5.98.73-.36.1-.72.22-1.08.35-2.69.96-4.14,2.92-4.34,5.72-.12,1.72-.03,3.46.05,5.18.12,2.61.33,5.21.49,7.82.32,5.06.63,10.11.94,15.17.38,6.12.76,12.25,1.14,18.37.21,3.42.41,6.85.61,10.27,0,.15.05.29.23.45.14-.3.29-.59.41-.89,6-14.47,12-28.94,18-43.41,1.66-4.01,3.31-8.02,4.99-12.03.4-.95.56-1.93.57-2.94.02-1.61-.72-2.77-2.13-3.51-1.33-.7-2.79-.97-4.27-1.11-1.25-.12-2.51-.17-3.86-.26.11-.61.21-1.21.32-1.83h27.23c-.05.36-.09.66-.14.96-.05.28-.1.55-.17.89-.33.02-.64.03-.94.05-1.47.12-2.96.18-4.42.37-2.85.38-5.14,1.78-6.89,4.06-1.51,1.96-2.66,4.13-3.63,6.39-1.91,4.45-3.76,8.93-5.61,13.4-9.39,22.63-18.77,45.27-28.16,67.9-1.34,3.22-2.65,6.46-4.05,9.66-1.11,2.54-2.5,4.94-4.17,7.16-4.22,5.6-9.81,8.61-16.85,8.84-5.14.17-10.17-.51-15.05-2.19-.32-.11-.64-.24-1.01-.38.13-1.14.25-2.23.67-3.25.7-1.72,2.24-2.32,3.94-1.55.45.2.86.49,1.38.79.19-1.05.36-2.02.54-3.03-.31-.23-.57-.44-.85-.64-1.97-1.35-2.9-3.24-3-5.59-.1-2.21.17-4.4.47-6.58.14-1.03.32-2.05.49-3.07.06-.36.14-.71.25-1.25.29.47.49.78.67,1.09,2,3.37,4.45,6.33,7.63,8.66,2.53,1.85,5.29,3.13,8.44,3.53,3.43.43,6.56-.35,9.45-2.19,2.38-1.51,4.23-3.56,5.79-5.88,1.2-1.78,2.17-3.68,2.99-5.67,1.52-3.66,3.04-7.32,4.56-10.98.1-.25.18-.51.33-.96-.47.21-.78.32-1.08.47-2.93,1.45-5.42,3.47-7.3,6.13-.74,1.05-1.55,1.06-2.63.87-.06-.77-.13-1.51-.18-2.26-.28-4.62-.55-9.24-.83-13.85-.41-6.69-.84-13.38-1.26-20.07-.38-6.12-.76-12.25-1.14-18.37-.4-6.47-.76-12.94-1.2-19.41-.14-2.16-.41-4.32-1.06-6.41-.13-.42-.27-.84-.44-1.25-.85-2.07-2.36-3.37-4.53-3.92-1.66-.42-3.35-.52-5.06-.56-.34,0-.69,0-1.13,0,.13-.69.24-1.28.35-1.9.29-.02.51-.05.73-.05,3.62,0,7.24-.02,10.87.02,1.09.01,2.21.12,3.27.36,2.76.63,4.17,2.35,4.4,5.17.04.44.06.88.09,1.32,0,.06.06.11.12.23h2.26c0-.48,0-.94,0-1.4-.02-2.7,1.66-4.93,4.22-5.56.42-.1.87-.15,1.31-.15,4.94-.01,9.89,0,14.83,0,.18,0,.37.02.69.05Z"/>
      <path class="cls-1" d="m536.19,162.39c-.36.17-.73.32-1.09.5-2.79,1.43-5.13,3.41-7.04,5.89q-.95,1.24-2.67,1.01c-.06-.63-.14-1.28-.18-1.93-.22-3.68-.43-7.35-.66-11.03-.34-5.47-.7-10.93-1.04-16.39-.24-3.8-.44-7.6-.68-11.4-.29-4.65-.59-9.3-.88-13.94-.4-6.44-.76-12.88-1.19-19.32-.14-2.16-.42-4.32-1.07-6.41-.13-.42-.27-.84-.44-1.24-.84-2.03-2.34-3.32-4.46-3.87-1.69-.44-3.42-.54-5.15-.58-.34,0-.68,0-1.08,0,.12-.68.23-1.27.34-1.89.28-.02.53-.06.77-.06,3.53,0,7.06-.02,10.58.02,1.03,0,2.08.08,3.1.26,2.99.52,4.62,2.39,4.83,5.42.03.46.07.92.12,1.43h2.35c0-.53,0-.99,0-1.46,0-3.16,2.34-5.62,5.49-5.65,4.98-.04,9.95-.01,14.93,0,.18,0,.36.03.63.05-.1.64-.19,1.22-.29,1.82-1.31.09-2.61.1-3.88.27-1.36.19-2.74.42-4.05.84-2.83.9-4.32,2.96-4.51,5.89-.1,1.6-.03,3.21.04,4.81.13,2.61.33,5.21.5,7.82.32,5.06.63,10.11.94,15.17.38,6.16.76,12.31,1.14,18.47.21,3.42.41,6.85.62,10.27.01.2.09.4.17.76.21-.47.37-.77.5-1.09,7.62-18.36,15.23-36.73,22.85-55.09.44-1.07.7-2.15.7-3.3,0-1.57-.71-2.71-2.08-3.44-1.36-.73-2.84-1-4.35-1.13-1.25-.11-2.5-.17-3.82-.26.11-.61.21-1.18.33-1.82h27.26c-.12.66-.22,1.23-.33,1.81-1.38.09-2.69.16-4.01.25-3.76.26-6.73,1.89-8.84,5.04-1.56,2.34-2.78,4.86-3.86,7.45-9.75,23.5-19.5,47.01-29.25,70.52-2.35,5.67-4.65,11.35-7.03,17.01-1.26,2.99-2.77,5.86-4.7,8.49-3.17,4.32-7.26,7.28-12.52,8.54-2.07.5-4.17.6-6.28.59-4.54-.03-8.96-.72-13.26-2.2-.33-.11-.65-.24-1.08-.4.25-1.27.27-2.56.93-3.71.71-1.25,1.95-1.72,3.31-1.23.58.21,1.12.55,1.79.89.18-1,.36-2,.53-2.99-.34-.25-.61-.46-.89-.66-1.94-1.33-2.85-3.2-2.97-5.52-.11-2.21.15-4.4.46-6.58.2-1.4.45-2.79.71-4.42.29.45.47.72.64,1.01,1.97,3.35,4.39,6.3,7.51,8.64,2.5,1.88,5.26,3.2,8.39,3.64,4.1.57,7.73-.54,10.96-3.06,2.84-2.21,4.86-5.09,6.43-8.28.82-1.66,1.51-3.39,2.23-5.1,1.13-2.7,2.24-5.4,3.36-8.11.12-.29.23-.58.34-.87-.05-.05-.1-.11-.15-.16Z"/>
      <path class="cls-1" d="m370.27,168.19h-1.88c.12-.74.21-1.41.33-2.09.37-2.11.74-4.21,1.12-6.32.06-.34.15-.68.27-1,.68-1.85,2.27-2.56,4.1-1.81.51.21.99.5,1.57.8.18-1.05.35-2.02.53-3.01-.3-.22-.55-.41-.8-.59-2.17-1.53-3.3-3.64-3.2-6.28.07-1.88.32-3.76.63-5.62,1.01-5.95,2.08-11.89,3.13-17.84.06-.34.14-.68.22-1.09h1.89c-.1.84-.18,1.61-.27,2.38-.39,3.46-.32,6.92.08,10.36.57,4.96,1.78,9.77,3.73,14.38,1.67,3.94,3.8,7.6,6.79,10.7,2.43,2.51,5.22,4.45,8.66,5.29,4.91,1.2,9.48.23,13.58-2.6,3.82-2.64,5.18-6.51,4.7-11.05-.37-3.56-1.87-6.7-3.77-9.67-1.5-2.34-3.24-4.49-5.18-6.48-7.4-7.6-14.81-15.2-22.23-22.78-2.1-2.15-3.54-4.65-4.05-7.63-.57-3.29-.05-6.46,1.24-9.51,2.46-5.82,6.61-10.12,12.05-13.22,4.54-2.59,9.45-3.75,14.68-3.41,3.12.2,6.15.92,9.15,1.78,2.84.82,5.67,1.67,8.53,2.4,1.05.27,2.18.33,3.27.33,1.97,0,3.33-.99,4.02-2.85.2-.53.34-1.07.53-1.66h1.89c-1.23,6.96-2.44,13.87-3.68,20.86h-1.95c-.17-.66-.32-1.34-.52-2-1.41-4.56-4.23-8.11-7.98-10.96-3.42-2.59-7.23-4.31-11.47-5.02-3.81-.64-7.46-.2-10.91,1.6-1.33.69-2.51,1.57-3.4,2.8-1.55,2.13-1.84,4.42-.5,6.72.71,1.21,1.58,2.36,2.55,3.38,4.04,4.24,8.14,8.42,12.23,12.61,4.42,4.53,8.85,9.05,13.27,13.58,3.5,3.58,5.47,7.87,5.96,12.84.57,5.77-.78,11.15-3.54,16.16-4.57,8.28-11.38,13.82-20.58,16.27-5.02,1.34-10.09,1.24-15.16.19-3.4-.7-6.68-1.8-9.99-2.8-1.44-.43-2.91-.8-4.38-1.13-.61-.14-1.25-.15-1.88-.14-1.6.02-2.58.76-3.11,2.27-.09.26-.18.53-.28.82Z"/>
      <path class="cls-1" d="m311.01,168.24c-.48,0-.88,0-1.29,0-.15,0-.31-.03-.58-.06.13-.8.26-1.56.39-2.32.37-2.07.7-4.16,1.12-6.22.57-2.83,2.67-3.73,5.14-2.26.21.13.42.25.67.4.06-.16.12-.27.14-.39.16-.86.31-1.73.47-2.61-.2-.15-.36-.29-.54-.41-2.65-1.76-3.74-4.27-3.45-7.37.19-2.06.51-4.12.86-6.16.97-5.64,1.98-11.27,2.98-16.91.03-.18.09-.36.15-.57h1.9c-.11.85-.24,1.63-.32,2.4-.33,3.17-.32,6.35,0,9.52.53,5.19,1.73,10.23,3.76,15.05,1.64,3.92,3.74,7.56,6.67,10.67,2.49,2.63,5.37,4.7,8.96,5.51,5.37,1.21,10.27.04,14.51-3.46,2.34-1.93,3.48-4.58,3.7-7.6.23-3.07-.54-5.93-1.81-8.68-1.51-3.26-3.57-6.15-5.99-8.78-2.24-2.43-4.57-4.78-6.87-7.15-5.43-5.57-10.83-11.16-16.31-16.68-4.24-4.28-5.41-9.29-3.87-15.01,1.17-4.34,3.58-7.95,6.77-11.06,3.93-3.82,8.55-6.38,13.94-7.5,3.47-.73,6.94-.62,10.42,0,3.6.64,7.06,1.81,10.57,2.82,1.54.44,3.1.84,4.67,1.13.92.17,1.89.17,2.82.06,1.52-.18,2.61-1.06,3.2-2.47.27-.63.45-1.3.68-1.98h1.87c-1.23,6.99-2.45,13.92-3.69,20.95h-1.92c-.09-.35-.16-.65-.23-.95-1.08-4.48-3.56-8.09-7.02-11.05-3.71-3.18-7.97-5.25-12.81-6.06-3.77-.63-7.4-.18-10.83,1.6-1.13.59-2.14,1.32-2.99,2.27-1.81,2.02-2.49,4.82-.82,7.48.71,1.14,1.54,2.23,2.47,3.2,4.2,4.39,8.46,8.73,12.7,13.08,4.24,4.35,8.5,8.69,12.74,13.04,4.04,4.14,6.03,9.13,6.08,14.9.06,7.24-2.51,13.55-6.96,19.12-4.89,6.12-11.18,10.06-18.89,11.64-4.16.85-8.32.77-12.48.02-3.79-.68-7.43-1.9-11.1-3.02-1.41-.43-2.85-.78-4.29-1.1-.61-.14-1.25-.15-1.88-.15-1.63.02-2.65.79-3.17,2.33-.08.24-.15.47-.26.81Z"/>
      <path class="cls-1" d="m501.37,135.36c-.2,1.14-.37,2.25-.59,3.36-.41,2.1-.78,4.2-1.28,6.28-.82,3.43-2.83,6-5.91,7.7-.48.27-.76.57-.81,1.14-.06.62-.21,1.24-.31,1.86-.02.09,0,.18,0,.41.33-.16.59-.28.84-.41.74-.37,1.49-.67,2.34-.64,1.01.03,1.67.6,1.75,1.61.04.56,0,1.13-.07,1.69-.13.93-.36,1.85-.48,2.79-.06.49-.29.78-.7,1.02-5.28,3.17-10.9,5.46-16.93,6.72-4.85,1.01-9.74,1.28-14.65.72-16.93-1.94-28.68-13.48-31.83-28.29-1.7-8-.99-15.86,1.65-23.52,4.53-13.12,13.01-23.06,24.8-30.25,5.56-3.39,11.56-5.7,17.99-6.8,8.77-1.51,17.31-.81,25.48,2.95,2.4,1.11,5.55,3.09,7.06,4.47-1.33,7.53-2.67,15.11-4.02,22.8-.45,0-.85,0-1.25,0-15.65,0-31.3,0-46.95-.02-.82,0-1.31.25-1.78.9-4.67,6.42-8.3,13.35-10.37,21.05-1.2,4.47-1.77,9.01-1.4,13.64.41,5.17,1.96,9.91,5.44,13.9.5.57,1.06.93,1.78,1.16,3.48,1.12,7.04,1.33,10.64.93,7.43-.83,14.05-3.8,20.2-7.88,7.44-4.94,13.58-11.2,18.64-18.53.16-.23.33-.46.5-.68.03-.04.11-.04.24-.07Zm2.04-26.4c.06-.12.13-.2.14-.29.63-3.83,1.06-7.67.61-11.55-.22-1.85-.65-3.65-1.49-5.33-1.3-2.58-3.35-4.2-6.17-4.83-1.52-.34-3.06-.34-4.6-.17-2.49.28-4.86,1-7.18,1.92-4.14,1.66-7.97,3.89-11.62,6.43-5.32,3.71-10.14,7.98-14.36,12.9-.23.27-.56.49-.59.91h45.27Z"/>
      <path class="cls-1" d="m136.66,89.53h-23.98c-.85,4.03-1.69,8.01-2.56,12.13h22.17c-.34,1.63-.65,3.12-.98,4.69h-22.18c-.97,4.54-1.92,9.02-2.9,13.65,8.15,0,16.21,0,24.39,0-.35,1.66-.68,3.19-1.01,4.74h-29.5s-.06-.06-.08-.08c-.02-.03-.05-.06-.04-.08,2.78-13.19,5.57-26.38,8.36-39.57.03-.12.1-.23.17-.37h29.2c-.35,1.63-.69,3.2-1.05,4.89Z"/>
      <path class="cls-1" d="m74.15,94.28c-1.33,6.24-2.65,12.44-3.98,18.65h-5.49c2.83-13.34,5.66-26.64,8.48-39.92.68-.23,3.96-.29,5.46-.09-.25,1.82-.72,3.6-1.1,5.39-.38,1.85-.78,3.69-1.17,5.54-.38,1.81-.76,3.62-1.14,5.42.74.21,19.57.27,20.87.06.84-3.92,1.68-7.87,2.53-11.85h5.5c-2.84,13.36-5.67,26.67-8.52,40.07-1.84.1-3.65.03-5.59.05,1.68-7.84,3.33-15.55,4.99-23.33h-20.85Z"/>
      <path class="cls-1" d="m43.86,107.04c2.49-11.75,4.98-23.48,7.5-35.33h-13.53c.35-1.65.67-3.17.99-4.72h32.6c-.33,1.58-.65,3.07-1,4.7-2.27.03-4.52,0-6.77.01-2.23,0-4.46,0-6.77,0-2.51,11.81-5,23.54-7.51,35.34h-5.52Z"/>
      <path class="cls-1" d="m575.01,174.26c-.35,5.52-2.09,10.45-6.16,14.37-3.44,3.32-7.61,4.65-12.35,4.28-.72-.06-1.44-.15-2.14-.32-3.9-.94-6.46-3.69-6.85-7.7-.66-6.64,1.44-12.36,6.34-16.92,3.22-3,7.18-4.03,11.51-3.73,1.03.07,2.07.24,3.06.5,3.7.98,6.06,3.81,6.44,7.62.06.63.09,1.25.14,1.9Zm-16.26,15.41c3.75.05,6.54-1.35,8.64-4.19,1.15-1.56,2.08-3.22,2.69-5.06.77-2.35,1.29-4.74.82-7.23-.51-2.73-2.01-4.65-4.76-5.4-1.48-.4-2.99-.41-4.49-.13-3.71.69-6.39,2.82-8.21,6.06-1.22,2.17-1.88,4.52-2.16,6.98-.21,1.83-.05,3.64.7,5.36.64,1.47,1.7,2.47,3.19,3.02,1.22.45,2.49.63,3.58.58Z"/>
      <path class="cls-1" d="m565.51,178.62c1.35.81,1.37,1.96,1.11,3.21-.12.58-.23,1.17-.36,1.76-.16.72-.23,1.42.24,2.07-.58.29-1.67.34-3.52.18-.1-.69-.07-1.4.07-2.1.14-.71.29-1.42.37-2.14.12-1.03-.24-1.52-1.26-1.58-1.31-.07-2.63-.02-4.04-.02-.42,1.94-.84,3.87-1.26,5.84h-3.1c1.07-5.03,2.13-10.03,3.2-15.07.29-.03.54-.08.78-.08,2.24,0,4.47,0,6.71,0,.38,0,.75.03,1.13.07,2.14.24,3.41,1.95,2.98,4.07-.35,1.7-1.23,3.01-3.04,3.79Zm-6-5.25c-.29,1.36-.56,2.64-.84,3.99,1.54,0,3.02.07,4.49-.02,1.27-.08,2.01-.96,2.11-2.26.09-1.1-.3-1.65-1.39-1.7-1.41-.06-2.83-.02-4.37-.02Z"/>
    </g>
  </g>
</svg>