<?xml version="1.0" encoding="utf-8"?>
<!-- Generator: Adobe Illustrator 28.0.0, SVG Export Plug-In . SVG Version: 6.00 Build 0)  -->
<svg version="1.1" id="Layer_1" xmlns="http://www.w3.org/2000/svg" xmlns:xlink="http://www.w3.org/1999/xlink" x="0px" y="0px"
	 viewBox="0 0 612 792" style="enable-background:new 0 0 612 792;" xml:space="preserve">
<style type="text/css">
	.st0{fill:#FFFFFF;}
</style>
<g>
	<path class="st0" d="M0,277c204.09,0,408.19,0,612.28,0c0,79.18,0,158.36,0,237.54c-204.09,0-408.19,0-612.28,0
		C0,435.36,0,356.18,0,277z M232.88,359.32c-0.38-0.15-0.64-0.26-0.9-0.36c-2.46-1.04-5.05-1.56-7.71-1.68
		c-4.43-0.2-8.81,0.29-13.1,1.38c-17.42,4.4-32.24,17.44-38.75,34.16c-3.3,8.49-4.36,17.23-2.32,26.2
		c1.75,7.69,5.53,14.24,11.62,19.3c8.39,6.98,18.02,9.62,28.83,7.73c4.34-0.76,8.43-2.28,12.37-4.23c0.3-0.15,0.61-0.29,0.81-0.39
		c1.09,0.78,2.04,1.56,3.09,2.18c2.28,1.36,4.81,1.78,7.44,1.78c5.42-0.01,10.83,0,16.25,0c0.31,0,0.62,0,0.98,0
		c0.11-0.69,0.21-1.3,0.31-1.94c-0.37-0.03-0.62-0.06-0.87-0.07c-2.08-0.1-4.04-0.62-5.87-1.61c-4.62-2.51-7.43-7.5-6.48-13.76
		c0.93-6.12,2.11-12.2,3.19-18.3c1.11-6.28,2.22-12.57,3.33-18.85c1.1-6.22,2.19-12.45,3.29-18.67c1.11-6.28,2.22-12.57,3.33-18.85
		c1.04-5.88,2.08-11.76,3.12-17.64c0.26-1.49,0.57-2.97,0.7-4.47c0.23-2.66-1.42-4.78-4.02-5.37c-1.27-0.29-2.5-0.09-3.71,0.33
		c-8.66,2.95-17.33,5.89-25.99,8.84c-0.23,0.08-0.45,0.19-0.7,0.3c-0.14,0.84-0.28,1.67-0.44,2.6c0.4-0.12,0.67-0.19,0.93-0.28
		c2.2-0.75,4.4-1.52,6.61-2.23c0.77-0.25,1.58-0.45,2.39-0.51c3.53-0.22,6.08,2.63,5.49,6.12c-0.77,4.59-1.57,9.17-2.36,13.75
		C233.48,356.25,233.18,357.72,232.88,359.32z M98.43,446.88c2.88-0.25,5.78-0.38,8.65-0.76c6.46-0.85,12.67-2.67,18.62-5.33
		c12.02-5.37,22.07-13.28,30.12-23.67c8.15-10.52,13.28-22.32,14.69-35.64c0.65-6.12,0.4-12.2-1.02-18.19
		c-3.3-13.93-11.06-24.59-23.62-31.59c-9.23-5.14-19.24-6.87-29.7-6.3c-5.46,0.3-10.8,1.33-16.01,2.97
		c-2.79,0.88-5.53,1.9-8.17,3.16c-1.46,0.7-2.84,1.5-3.91,2.75c-0.72,0.84-1.17,1.8-1.09,2.93c0.13,1.71,1.74,4.21,4.36,4.39
		c2.19,0.15,4.34-0.12,6.47-0.51c4.87-0.9,9.62-2.25,14.31-3.78c5.23-1.71,10.54-2.94,16.05-3.21c6.1-0.3,12.06,0.4,17.89,2.23
		c0.59,0.18,1.06,0.5,1.49,0.94c2.66,2.73,4.8,5.83,6.43,9.27c3.23,6.81,4.29,14.04,3.93,21.49c-0.34,6.87-1.84,13.52-4.4,19.9
		c-7.01,17.49-18.59,31.18-34.63,41.03c-8.8,5.41-18.33,8.85-28.73,9.55c-5.23,0.35-10.37-0.16-15.39-1.71
		c-3.29-1.01-3.73-1.31-5.78-4.04c-4.93-6.56-7.58-13.99-8.34-22.13c-0.13-1.41-0.19-2.83-0.37-4.23c-0.23-1.83-0.78-3.56-1.84-5.1
		c-1.19-1.74-2.81-2.85-4.92-3.2c-3.13-0.52-5.42,1.33-5.54,4.48c-0.02,0.44,0,0.88,0.01,1.32c0.05,1.93,0.48,3.8,0.96,5.66
		c3.71,14.41,12.1,25.12,25.44,31.8C81.94,445.15,90.02,446.71,98.43,446.88z M296.02,358.56c-0.32-0.02-0.51-0.05-0.69-0.05
		c-4.94,0-9.89-0.01-14.83,0.01c-0.44,0-0.89,0.05-1.31,0.15c-2.56,0.63-4.24,2.85-4.22,5.55c0,0.46,0,0.92,0,1.4
		c-0.83,0-1.56,0-2.26,0c-0.07-0.13-0.12-0.18-0.12-0.23c-0.03-0.44-0.05-0.88-0.09-1.32c-0.23-2.82-1.65-4.54-4.4-5.17
		c-1.06-0.24-2.18-0.35-3.27-0.36c-3.62-0.05-7.24-0.02-10.87-0.02c-0.22,0-0.43,0.03-0.73,0.05c-0.11,0.61-0.22,1.21-0.35,1.9
		c0.44,0,0.79-0.01,1.13,0c1.7,0.04,3.4,0.14,5.06,0.56c2.16,0.55,3.68,1.85,4.53,3.92c0.17,0.41,0.31,0.83,0.44,1.25
		c0.65,2.09,0.92,4.25,1.06,6.41c0.43,6.47,0.8,12.94,1.2,19.4c0.38,6.12,0.75,12.24,1.14,18.37c0.42,6.69,0.85,13.37,1.26,20.06
		c0.29,4.62,0.55,9.23,0.83,13.85c0.05,0.75,0.12,1.49,0.18,2.26c1.08,0.2,1.89,0.18,2.63-0.87c1.88-2.66,4.37-4.68,7.3-6.13
		c0.3-0.15,0.6-0.26,1.08-0.47c-0.16,0.45-0.23,0.71-0.33,0.96c-1.52,3.66-3.04,7.32-4.56,10.98c-0.82,1.98-1.8,3.88-2.99,5.66
		c-1.56,2.32-3.41,4.37-5.79,5.88c-2.89,1.84-6.03,2.62-9.45,2.19c-3.15-0.4-5.91-1.68-8.44-3.53c-3.17-2.32-5.63-5.29-7.63-8.65
		c-0.19-0.32-0.39-0.62-0.67-1.09c-0.11,0.54-0.19,0.89-0.25,1.25c-0.17,1.02-0.35,2.05-0.49,3.07c-0.3,2.18-0.57,4.37-0.47,6.58
		c0.1,2.35,1.03,4.25,3,5.59c0.28,0.19,0.55,0.41,0.85,0.64c-0.18,1-0.35,1.97-0.54,3.02c-0.52-0.3-0.93-0.59-1.38-0.79
		c-1.7-0.77-3.24-0.17-3.94,1.55c-0.42,1.02-0.54,2.12-0.67,3.25c0.37,0.14,0.68,0.27,1.01,0.38c4.88,1.68,9.91,2.36,15.05,2.19
		c7.04-0.23,12.63-3.24,16.85-8.84c1.67-2.22,3.06-4.62,4.17-7.16c1.4-3.2,2.71-6.43,4.05-9.65c9.39-22.62,18.77-45.25,28.16-67.87
		c1.86-4.47,3.7-8.95,5.61-13.4c0.97-2.26,2.12-4.42,3.63-6.38c1.76-2.28,4.04-3.67,6.89-4.05c1.46-0.2,2.94-0.25,4.42-0.37
		c0.3-0.02,0.61-0.03,0.94-0.05c0.06-0.34,0.12-0.61,0.17-0.89c0.05-0.3,0.09-0.6,0.14-0.96c-9.1,0-18.13,0-27.23,0
		c-0.11,0.62-0.21,1.22-0.32,1.83c1.35,0.09,2.6,0.14,3.86,0.26c1.48,0.14,2.93,0.41,4.27,1.11c1.41,0.74,2.15,1.89,2.13,3.5
		c-0.01,1.02-0.17,1.99-0.57,2.94c-1.68,4-3.33,8.02-4.99,12.02c-6,14.46-12,28.93-18,43.39c-0.13,0.3-0.28,0.59-0.41,0.89
		c-0.18-0.16-0.22-0.3-0.23-0.45c-0.21-3.42-0.41-6.85-0.61-10.27c-0.38-6.12-0.76-12.24-1.14-18.37
		c-0.31-5.05-0.62-10.11-0.94-15.16c-0.16-2.61-0.37-5.21-0.49-7.82c-0.08-1.72-0.17-3.46-0.05-5.18c0.19-2.8,1.64-4.76,4.34-5.72
		c0.35-0.13,0.71-0.25,1.08-0.35c1.96-0.54,3.97-0.67,5.98-0.73c0.33-0.01,0.67,0,1.01,0C295.82,359.78,295.91,359.23,296.02,358.56
		z M536,439.14c0.05,0.05,0.1,0.11,0.15,0.16c-0.11,0.29-0.22,0.58-0.34,0.87c-1.12,2.7-2.23,5.41-3.36,8.1
		c-0.72,1.71-1.41,3.44-2.23,5.1c-1.57,3.19-3.59,6.07-6.43,8.28c-3.23,2.51-6.86,3.63-10.96,3.05c-3.14-0.44-5.89-1.76-8.39-3.64
		c-3.12-2.34-5.54-5.29-7.51-8.64c-0.17-0.28-0.35-0.55-0.64-1.01c-0.26,1.62-0.51,3.02-0.71,4.41c-0.31,2.18-0.57,4.37-0.46,6.58
		c0.11,2.31,1.03,4.19,2.97,5.52c0.28,0.19,0.55,0.41,0.89,0.66c-0.18,0.99-0.35,1.98-0.53,2.99c-0.67-0.34-1.2-0.68-1.79-0.89
		c-1.36-0.49-2.6-0.02-3.31,1.23c-0.66,1.15-0.68,2.44-0.93,3.71c0.43,0.16,0.75,0.28,1.08,0.4c4.3,1.48,8.72,2.17,13.26,2.2
		c2.11,0.01,4.22-0.09,6.28-0.59c5.26-1.26,9.35-4.21,12.52-8.53c1.93-2.63,3.44-5.49,4.7-8.48c2.37-5.65,4.68-11.33,7.03-17
		c9.75-23.5,19.5-46.99,29.25-70.49c1.07-2.59,2.29-5.1,3.86-7.44c2.11-3.16,5.08-4.78,8.84-5.04c1.31-0.09,2.63-0.16,4.01-0.25
		c0.11-0.58,0.21-1.16,0.33-1.81c-9.12,0-18.16,0-27.26,0c-0.11,0.63-0.22,1.21-0.33,1.82c1.32,0.09,2.57,0.14,3.82,0.26
		c1.51,0.14,3,0.41,4.35,1.13c1.37,0.73,2.08,1.87,2.08,3.44c0,1.15-0.25,2.23-0.7,3.3c-7.62,18.35-15.24,36.71-22.85,55.06
		c-0.13,0.31-0.28,0.62-0.5,1.09c-0.09-0.36-0.16-0.56-0.17-0.76c-0.21-3.42-0.41-6.85-0.62-10.27c-0.38-6.15-0.76-12.31-1.14-18.46
		c-0.31-5.06-0.62-10.11-0.94-15.17c-0.16-2.61-0.37-5.21-0.5-7.82c-0.08-1.6-0.15-3.21-0.04-4.81c0.19-2.93,1.68-4.98,4.51-5.88
		c1.31-0.42,2.69-0.65,4.05-0.84c1.27-0.18,2.56-0.19,3.88-0.27c0.1-0.6,0.19-1.18,0.29-1.82c-0.26-0.02-0.45-0.05-0.63-0.05
		c-4.98,0-9.95-0.03-14.93,0.01c-3.15,0.03-5.5,2.49-5.49,5.65c0,0.47,0,0.93,0,1.46c-0.78,0-1.52,0-2.35,0
		c-0.04-0.5-0.09-0.96-0.12-1.42c-0.2-3.03-1.83-4.9-4.83-5.42c-1.02-0.18-2.06-0.25-3.1-0.26c-3.53-0.03-7.05-0.02-10.58-0.02
		c-0.25,0-0.49,0.04-0.77,0.06c-0.11,0.62-0.22,1.21-0.34,1.89c0.4,0,0.74-0.01,1.08,0c1.73,0.04,3.46,0.14,5.15,0.58
		c2.12,0.55,3.62,1.84,4.46,3.87c0.17,0.41,0.31,0.82,0.44,1.24c0.65,2.09,0.92,4.24,1.07,6.41c0.43,6.43,0.79,12.87,1.19,19.31
		c0.29,4.65,0.6,9.29,0.88,13.94c0.23,3.8,0.44,7.6,0.68,11.4c0.34,5.46,0.7,10.92,1.04,16.39c0.23,3.67,0.43,7.35,0.66,11.02
		c0.04,0.65,0.12,1.3,0.18,1.92c1.72,0.23,1.72,0.23,2.67-1.01c1.91-2.48,4.25-4.46,7.04-5.89
		C535.27,439.46,535.64,439.31,536,439.14z M370.08,444.93c0.1-0.29,0.19-0.56,0.28-0.82c0.54-1.51,1.51-2.24,3.11-2.27
		c0.63-0.01,1.27,0,1.88,0.14c1.47,0.33,2.94,0.69,4.38,1.13c3.31,1,6.59,2.09,9.99,2.79c5.07,1.05,10.13,1.15,15.16-0.19
		c9.2-2.45,16.01-7.99,20.58-16.27c2.76-5.01,4.11-10.39,3.54-16.15c-0.49-4.97-2.46-9.26-5.96-12.83
		c-4.43-4.52-8.85-9.04-13.27-13.57c-4.09-4.19-8.19-8.37-12.23-12.6c-0.97-1.02-1.84-2.16-2.55-3.38c-1.34-2.3-1.05-4.59,0.5-6.72
		c0.89-1.22,2.07-2.1,3.4-2.79c3.45-1.8,7.11-2.24,10.91-1.6c4.24,0.72,8.06,2.43,11.47,5.02c3.75,2.85,6.57,6.39,7.98,10.95
		c0.2,0.66,0.35,1.33,0.52,2c0.66,0,1.31,0,1.95,0c1.23-6.99,2.45-13.9,3.68-20.86c-0.72,0-1.3,0-1.89,0
		c-0.18,0.58-0.33,1.13-0.53,1.66c-0.7,1.85-2.05,2.85-4.02,2.85c-1.09,0-2.22-0.06-3.27-0.33c-2.86-0.73-5.69-1.58-8.53-2.4
		c-3-0.86-6.03-1.57-9.15-1.78c-5.23-0.34-10.14,0.82-14.68,3.41c-5.44,3.1-9.6,7.4-12.05,13.22c-1.28,3.04-1.8,6.21-1.24,9.51
		c0.51,2.98,1.95,5.47,4.05,7.63c7.42,7.58,14.83,15.17,22.23,22.77c1.94,1.99,3.68,4.14,5.18,6.48c1.9,2.97,3.39,6.11,3.77,9.67
		c0.48,4.54-0.88,8.41-4.7,11.05c-4.09,2.83-8.67,3.79-13.58,2.6c-3.44-0.84-6.24-2.78-8.66-5.29c-2.99-3.1-5.12-6.76-6.79-10.7
		c-1.95-4.61-3.16-9.41-3.73-14.37c-0.4-3.45-0.47-6.9-0.08-10.36c0.09-0.77,0.18-1.55,0.27-2.38c-0.68,0-1.28,0-1.89,0
		c-0.08,0.41-0.16,0.75-0.22,1.09c-1.05,5.94-2.13,11.88-3.13,17.83c-0.31,1.85-0.56,3.74-0.63,5.61c-0.1,2.64,1.04,4.74,3.2,6.28
		c0.25,0.18,0.5,0.37,0.8,0.59c-0.17,0.99-0.34,1.96-0.53,3.01c-0.58-0.3-1.06-0.6-1.57-0.8c-1.83-0.75-3.42-0.04-4.1,1.81
		c-0.12,0.32-0.21,0.66-0.27,1c-0.38,2.1-0.75,4.21-1.12,6.31c-0.12,0.67-0.22,1.35-0.33,2.08
		C368.89,444.93,369.48,444.93,370.08,444.93z M310.82,444.98c0.11-0.34,0.18-0.57,0.26-0.81c0.52-1.54,1.54-2.31,3.17-2.33
		c0.63-0.01,1.27,0.01,1.88,0.15c1.44,0.32,2.88,0.67,4.29,1.1c3.67,1.12,7.31,2.34,11.1,3.02c4.16,0.75,8.33,0.83,12.48-0.02
		c7.71-1.58,14-5.52,18.89-11.64c4.45-5.57,7.02-11.88,6.96-19.12c-0.05-5.77-2.04-10.76-6.08-14.9c-4.24-4.35-8.5-8.68-12.74-13.03
		c-4.24-4.35-8.5-8.69-12.7-13.07c-0.93-0.97-1.76-2.06-2.47-3.2c-1.67-2.66-0.99-5.46,0.82-7.48c0.85-0.95,1.86-1.69,2.99-2.27
		c3.42-1.78,7.05-2.23,10.83-1.59c4.83,0.81,9.1,2.88,12.81,6.06c3.46,2.96,5.93,6.57,7.02,11.05c0.07,0.3,0.15,0.6,0.23,0.95
		c0.35,0,0.66,0,0.97,0c0.31,0,0.61,0,0.94,0c1.24-7.02,2.46-13.95,3.69-20.94c-0.71,0-1.3,0-1.87,0c-0.23,0.69-0.42,1.35-0.68,1.98
		c-0.6,1.41-1.68,2.29-3.2,2.47c-0.93,0.11-1.9,0.1-2.82-0.06c-1.57-0.29-3.13-0.69-4.67-1.13c-3.51-1.01-6.96-2.18-10.57-2.81
		c-3.47-0.61-6.94-0.72-10.42,0.01c-5.39,1.13-10.01,3.68-13.94,7.5c-3.19,3.1-5.6,6.71-6.77,11.05c-1.54,5.72-0.38,10.73,3.87,15
		c5.48,5.52,10.88,11.11,16.31,16.68c2.31,2.37,4.63,4.72,6.87,7.15c2.42,2.63,4.48,5.52,5.99,8.78c1.27,2.75,2.04,5.61,1.81,8.68
		c-0.22,3.02-1.36,5.67-3.7,7.6c-4.24,3.5-9.13,4.67-14.51,3.46c-3.59-0.81-6.47-2.87-8.96-5.5c-2.94-3.11-5.03-6.75-6.67-10.66
		c-2.02-4.82-3.22-9.85-3.76-15.04c-0.32-3.17-0.34-6.35-0.01-9.52c0.08-0.78,0.2-1.55,0.32-2.4c-0.65,0-1.26,0-1.9,0
		c-0.05,0.21-0.11,0.39-0.15,0.57c-1,5.63-2.01,11.26-2.98,16.9c-0.35,2.04-0.66,4.1-0.86,6.16c-0.29,3.1,0.8,5.61,3.45,7.37
		c0.18,0.12,0.34,0.26,0.54,0.41c-0.16,0.88-0.31,1.74-0.47,2.6c-0.02,0.12-0.08,0.22-0.14,0.39c-0.25-0.15-0.46-0.28-0.67-0.4
		c-2.46-1.47-4.57-0.57-5.14,2.25c-0.42,2.06-0.75,4.14-1.12,6.22c-0.13,0.76-0.26,1.52-0.39,2.32c0.27,0.03,0.43,0.06,0.58,0.06
		C309.94,444.98,310.34,444.98,310.82,444.98z M501.18,412.12c-0.12,0.04-0.21,0.03-0.24,0.07c-0.17,0.22-0.34,0.45-0.5,0.68
		c-5.07,7.33-11.21,13.58-18.64,18.52c-6.16,4.08-12.77,7.05-20.2,7.88c-3.6,0.4-7.16,0.2-10.64-0.93
		c-0.71-0.23-1.28-0.59-1.78-1.16c-3.48-3.98-5.03-8.72-5.44-13.89c-0.37-4.63,0.21-9.17,1.4-13.64c2.06-7.7,5.7-14.62,10.37-21.04
		c0.48-0.66,0.97-0.91,1.78-0.9c15.65,0.03,31.3,0.02,46.95,0.02c0.4,0,0.8,0,1.25,0c1.36-7.69,2.69-15.27,4.02-22.79
		c-1.51-1.38-4.66-3.36-7.06-4.47c-8.17-3.77-16.7-4.46-25.48-2.95c-6.43,1.11-12.43,3.41-17.99,6.8
		c-11.78,7.19-20.27,17.13-24.8,30.24c-2.65,7.67-3.35,15.52-1.65,23.51c3.15,14.8,14.9,26.34,31.83,28.28
		c4.92,0.56,9.8,0.29,14.65-0.72c6.04-1.26,11.66-3.55,16.93-6.72c0.41-0.25,0.64-0.53,0.7-1.02c0.12-0.93,0.35-1.85,0.48-2.79
		c0.08-0.56,0.12-1.13,0.07-1.69c-0.08-1.01-0.74-1.58-1.75-1.61c-0.85-0.03-1.6,0.28-2.34,0.64c-0.26,0.13-0.52,0.25-0.84,0.41
		c0-0.23-0.01-0.33,0-0.41c0.11-0.62,0.26-1.23,0.31-1.86c0.05-0.57,0.33-0.87,0.81-1.14c3.09-1.7,5.09-4.27,5.91-7.69
		c0.5-2.08,0.87-4.18,1.28-6.28C500.81,414.37,500.98,413.26,501.18,412.12z M136.48,366.31c0.36-1.68,0.7-3.26,1.05-4.89
		c-9.81,0-19.5,0-29.2,0c-0.06,0.14-0.14,0.25-0.17,0.37c-2.79,13.18-5.58,26.37-8.36,39.56c-0.01,0.02,0.02,0.06,0.04,0.08
		c0.02,0.02,0.04,0.04,0.08,0.08c9.8,0,19.62,0,29.5,0c0.33-1.55,0.66-3.08,1.01-4.74c-8.18,0-16.24,0-24.39,0
		c0.98-4.63,1.94-9.11,2.9-13.65c7.43,0,14.79,0,22.18,0c0.33-1.57,0.64-3.06,0.98-4.69c-7.45,0-14.76,0-22.17,0
		c0.87-4.11,1.71-8.1,2.56-12.12C120.5,366.31,128.43,366.31,136.48,366.31z M73.96,371.06c6.96,0,13.86,0,20.85,0
		c-1.67,7.77-3.32,15.48-4.99,23.32c1.94-0.02,3.74,0.04,5.59-0.05c2.85-13.39,5.68-26.69,8.52-40.05c-1.86,0-3.64,0-5.5,0
		c-0.85,3.98-1.69,7.93-2.53,11.84c-1.3,0.2-20.13,0.15-20.87-0.06c0.38-1.8,0.76-3.61,1.14-5.42c0.39-1.85,0.78-3.69,1.17-5.54
		c0.37-1.79,0.84-3.57,1.1-5.39c-1.5-0.2-4.78-0.14-5.46,0.09c-2.82,13.27-5.64,26.56-8.48,39.9c1.9,0,3.65,0,5.49,0
		C71.31,383.49,72.63,377.29,73.96,371.06z M43.67,383.81c1.88,0,3.68,0,5.52,0c2.51-11.79,5-23.52,7.51-35.32c2.31,0,4.54,0,6.77,0
		c2.25,0,4.51,0.02,6.77-0.01c0.34-1.63,0.66-3.12,1-4.7c-10.91,0-21.72,0-32.6,0c-0.33,1.55-0.65,3.07-0.99,4.71
		c4.55,0,8.97,0,13.53,0C48.66,360.34,46.17,372.06,43.67,383.81z M574.82,451c-0.05-0.64-0.08-1.27-0.14-1.9
		c-0.39-3.81-2.75-6.64-6.44-7.62c-1-0.27-2.04-0.43-3.06-0.5c-4.33-0.3-8.29,0.74-11.51,3.73c-4.9,4.56-7,10.27-6.34,16.91
		c0.4,4.01,2.96,6.76,6.85,7.7c0.7,0.17,1.42,0.26,2.14,0.32c4.74,0.37,8.9-0.95,12.35-4.28C572.72,461.45,574.47,456.52,574.82,451
		z"/>
	<path d="M232.88,359.32c0.3-1.6,0.6-3.07,0.86-4.55c0.8-4.58,1.59-9.17,2.36-13.75c0.59-3.49-1.96-6.34-5.49-6.12
		c-0.8,0.05-1.62,0.26-2.39,0.51c-2.21,0.71-4.41,1.49-6.61,2.23c-0.26,0.09-0.53,0.16-0.93,0.28c0.16-0.94,0.3-1.76,0.44-2.6
		c0.25-0.11,0.47-0.22,0.7-0.3c8.66-2.95,17.33-5.9,25.99-8.84c1.21-0.41,2.44-0.61,3.71-0.33c2.6,0.59,4.25,2.71,4.02,5.37
		c-0.13,1.5-0.44,2.98-0.7,4.47c-1.03,5.88-2.08,11.76-3.12,17.64c-1.11,6.28-2.22,12.57-3.33,18.85
		c-1.1,6.22-2.19,12.45-3.29,18.67c-1.11,6.28-2.22,12.57-3.33,18.85c-1.08,6.1-2.26,12.18-3.19,18.3
		c-0.95,6.26,1.86,11.25,6.48,13.76c1.83,0.99,3.79,1.51,5.87,1.61c0.25,0.01,0.49,0.04,0.87,0.07c-0.1,0.65-0.2,1.25-0.31,1.94
		c-0.37,0-0.67,0-0.98,0c-5.42,0-10.83-0.01-16.25,0c-2.62,0-5.15-0.42-7.44-1.78c-1.05-0.62-2-1.4-3.09-2.18
		c-0.2,0.1-0.51,0.24-0.81,0.39c-3.94,1.95-8.02,3.47-12.37,4.23c-10.81,1.89-20.43-0.75-28.83-7.73
		c-6.09-5.06-9.87-11.61-11.62-19.3c-2.03-8.97-0.98-17.71,2.32-26.2c6.51-16.72,21.33-29.76,38.75-34.16
		c4.3-1.09,8.67-1.58,13.1-1.38c2.66,0.12,5.24,0.64,7.71,1.68C232.24,359.06,232.5,359.16,232.88,359.32z M230.29,372.69
		c0.04-1.93-0.02-3.84-0.86-5.63c-0.62-1.34-1.64-2.25-3.07-2.57c-0.76-0.17-1.57-0.2-2.34-0.15c-2.14,0.16-4.1,0.95-6,1.87
		c-3.21,1.56-6.16,3.55-8.93,5.79c-6.21,5.01-11.54,10.87-16.26,17.28c-4.76,6.47-8.38,13.52-10.37,21.34
		c-1.36,5.36-1.89,10.77-0.86,16.26c0.7,3.74,2.13,7.15,4.51,10.15c0.82,1.04,1.8,1.65,3.08,2c4.52,1.22,9.04,1.08,13.56,0.09
		c6.17-1.35,11.74-4.08,16.96-7.57c0.45-0.3,0.57-0.7,0.65-1.18c0.84-4.83,1.69-9.66,2.56-14.49c0.91-5.07,1.83-10.14,2.73-15.22
		c1.05-5.88,2.11-11.76,3.11-17.64C229.34,379.6,230.21,376.2,230.29,372.69z"/>
	<path d="M98.43,446.88c-8.41-0.18-16.49-1.73-24.03-5.51c-13.35-6.69-21.73-17.4-25.44-31.8c-0.48-1.85-0.91-3.73-0.96-5.66
		c-0.01-0.44-0.03-0.88-0.01-1.32c0.12-3.16,2.41-5,5.54-4.48c2.11,0.35,3.72,1.45,4.92,3.2c1.05,1.54,1.6,3.27,1.84,5.1
		c0.18,1.4,0.24,2.82,0.37,4.23c0.76,8.14,3.4,15.56,8.34,22.13c2.05,2.73,2.49,3.03,5.78,4.04c5.02,1.55,10.16,2.06,15.39,1.71
		c10.4-0.7,19.93-4.14,28.73-9.55c16.04-9.86,27.63-23.54,34.63-41.03c2.56-6.38,4.06-13.03,4.4-19.9
		c0.36-7.46-0.7-14.68-3.93-21.49c-1.63-3.44-3.77-6.53-6.43-9.27c-0.43-0.44-0.9-0.75-1.49-0.94c-5.83-1.83-11.8-2.53-17.89-2.23
		c-5.51,0.27-10.82,1.5-16.05,3.21c-4.69,1.54-9.44,2.89-14.31,3.78c-2.14,0.39-4.28,0.66-6.47,0.51c-2.62-0.18-4.24-2.68-4.36-4.39
		c-0.08-1.13,0.37-2.09,1.09-2.93c1.07-1.25,2.45-2.05,3.91-2.75c2.64-1.26,5.38-2.29,8.17-3.16c5.22-1.64,10.55-2.67,16.01-2.97
		c10.46-0.57,20.47,1.16,29.7,6.3c12.56,7,20.33,17.65,23.62,31.59c1.42,5.99,1.67,12.07,1.02,18.19
		c-1.42,13.31-6.55,25.11-14.69,35.64c-8.05,10.4-18.1,18.31-30.12,23.67c-5.95,2.66-12.16,4.48-18.62,5.33
		C104.21,446.5,101.31,446.64,98.43,446.88z"/>
	<path d="M296.02,358.56c-0.11,0.67-0.2,1.22-0.32,1.9c-0.34,0-0.68-0.01-1.01,0c-2.02,0.06-4.03,0.19-5.98,0.73
		c-0.36,0.1-0.72,0.22-1.08,0.35c-2.69,0.96-4.14,2.92-4.34,5.72c-0.12,1.72-0.03,3.46,0.05,5.18c0.12,2.61,0.33,5.21,0.49,7.82
		c0.32,5.05,0.63,10.11,0.94,15.16c0.38,6.12,0.76,12.24,1.14,18.37c0.21,3.42,0.41,6.85,0.61,10.27c0.01,0.15,0.05,0.29,0.23,0.45
		c0.14-0.3,0.29-0.59,0.41-0.89c6-14.46,12-28.93,18-43.39c1.66-4.01,3.31-8.02,4.99-12.02c0.4-0.95,0.56-1.92,0.57-2.94
		c0.02-1.61-0.72-2.76-2.13-3.5c-1.33-0.7-2.79-0.97-4.27-1.11c-1.25-0.12-2.51-0.17-3.86-0.26c0.11-0.61,0.21-1.21,0.32-1.83
		c9.1,0,18.13,0,27.23,0c-0.05,0.36-0.09,0.66-0.14,0.96c-0.05,0.28-0.1,0.55-0.17,0.89c-0.33,0.02-0.64,0.03-0.94,0.05
		c-1.47,0.12-2.96,0.18-4.42,0.37c-2.85,0.38-5.14,1.78-6.89,4.05c-1.51,1.96-2.66,4.13-3.63,6.38c-1.91,4.45-3.76,8.93-5.61,13.4
		c-9.39,22.62-18.77,45.25-28.16,67.87c-1.34,3.22-2.65,6.46-4.05,9.65c-1.11,2.54-2.5,4.94-4.17,7.16
		c-4.22,5.6-9.81,8.61-16.85,8.84c-5.14,0.17-10.17-0.51-15.05-2.19c-0.32-0.11-0.64-0.24-1.01-0.38c0.13-1.14,0.25-2.23,0.67-3.25
		c0.7-1.72,2.24-2.32,3.94-1.55c0.45,0.2,0.86,0.49,1.38,0.79c0.19-1.05,0.36-2.02,0.54-3.02c-0.31-0.23-0.57-0.44-0.85-0.64
		c-1.97-1.35-2.9-3.24-3-5.59c-0.1-2.21,0.17-4.4,0.47-6.58c0.14-1.03,0.32-2.05,0.49-3.07c0.06-0.36,0.14-0.71,0.25-1.25
		c0.29,0.47,0.49,0.78,0.67,1.09c2,3.36,4.45,6.33,7.63,8.65c2.53,1.85,5.29,3.13,8.44,3.53c3.43,0.43,6.56-0.35,9.45-2.19
		c2.38-1.51,4.23-3.56,5.79-5.88c1.2-1.78,2.17-3.68,2.99-5.66c1.52-3.66,3.04-7.32,4.56-10.98c0.1-0.25,0.18-0.51,0.33-0.96
		c-0.47,0.21-0.78,0.32-1.08,0.47c-2.93,1.45-5.42,3.46-7.3,6.13c-0.74,1.05-1.55,1.06-2.63,0.87c-0.06-0.77-0.13-1.51-0.18-2.26
		c-0.28-4.62-0.55-9.23-0.83-13.85c-0.41-6.69-0.84-13.37-1.26-20.06c-0.38-6.12-0.76-12.24-1.14-18.37
		c-0.4-6.47-0.76-12.94-1.2-19.4c-0.14-2.16-0.41-4.32-1.06-6.41c-0.13-0.42-0.27-0.84-0.44-1.25c-0.85-2.06-2.36-3.37-4.53-3.92
		c-1.66-0.42-3.35-0.52-5.06-0.56c-0.34-0.01-0.69,0-1.13,0c0.13-0.69,0.24-1.28,0.35-1.9c0.29-0.02,0.51-0.05,0.73-0.05
		c3.62,0,7.24-0.02,10.87,0.02c1.09,0.01,2.21,0.12,3.27,0.36c2.76,0.63,4.17,2.35,4.4,5.17c0.04,0.44,0.06,0.88,0.09,1.32
		c0,0.06,0.06,0.11,0.12,0.23c0.7,0,1.43,0,2.26,0c0-0.48,0-0.94,0-1.4c-0.02-2.7,1.66-4.92,4.22-5.55c0.42-0.1,0.87-0.15,1.31-0.15
		c4.94-0.01,9.89-0.01,14.83-0.01C295.51,358.52,295.7,358.54,296.02,358.56z"/>
	<path d="M536,439.14c-0.36,0.17-0.73,0.32-1.09,0.5c-2.79,1.43-5.13,3.41-7.04,5.89c-0.95,1.24-0.95,1.24-2.67,1.01
		c-0.06-0.63-0.14-1.28-0.18-1.92c-0.22-3.67-0.43-7.35-0.66-11.02c-0.34-5.46-0.7-10.92-1.04-16.39c-0.24-3.8-0.44-7.6-0.68-11.4
		c-0.29-4.65-0.59-9.29-0.88-13.94c-0.4-6.44-0.76-12.88-1.19-19.31c-0.14-2.16-0.42-4.32-1.07-6.41c-0.13-0.42-0.27-0.84-0.44-1.24
		c-0.84-2.03-2.34-3.31-4.46-3.87c-1.69-0.44-3.42-0.54-5.15-0.58c-0.34-0.01-0.68,0-1.08,0c0.12-0.68,0.23-1.26,0.34-1.89
		c0.28-0.02,0.53-0.06,0.77-0.06c3.53,0,7.06-0.02,10.58,0.02c1.03,0.01,2.08,0.08,3.1,0.26c2.99,0.52,4.62,2.39,4.83,5.42
		c0.03,0.46,0.07,0.92,0.12,1.42c0.83,0,1.56,0,2.35,0c0-0.53,0-0.99,0-1.46c-0.01-3.16,2.34-5.62,5.49-5.65
		c4.98-0.04,9.95-0.01,14.93-0.01c0.18,0,0.36,0.03,0.63,0.05c-0.1,0.64-0.19,1.22-0.29,1.82c-1.31,0.09-2.61,0.1-3.88,0.27
		c-1.36,0.19-2.74,0.42-4.05,0.84c-2.83,0.9-4.32,2.96-4.51,5.88c-0.1,1.6-0.03,3.21,0.04,4.81c0.13,2.61,0.33,5.21,0.5,7.82
		c0.32,5.05,0.63,10.11,0.94,15.17c0.38,6.15,0.76,12.31,1.14,18.46c0.21,3.42,0.41,6.85,0.62,10.27c0.01,0.2,0.09,0.4,0.17,0.76
		c0.21-0.47,0.37-0.77,0.5-1.09c7.62-18.36,15.23-36.71,22.85-55.06c0.44-1.06,0.7-2.15,0.7-3.3c0-1.57-0.71-2.71-2.08-3.44
		c-1.36-0.73-2.84-1-4.35-1.13c-1.25-0.11-2.5-0.17-3.82-0.26c0.11-0.61,0.21-1.18,0.33-1.82c9.1,0,18.14,0,27.26,0
		c-0.12,0.65-0.22,1.23-0.33,1.81c-1.38,0.09-2.69,0.16-4.01,0.25c-3.76,0.26-6.73,1.89-8.84,5.04c-1.56,2.34-2.78,4.85-3.86,7.44
		c-9.75,23.49-19.5,46.99-29.25,70.49c-2.35,5.66-4.65,11.35-7.03,17c-1.26,2.99-2.77,5.86-4.7,8.48
		c-3.17,4.32-7.26,7.27-12.52,8.53c-2.07,0.5-4.17,0.6-6.28,0.59c-4.54-0.03-8.96-0.72-13.26-2.2c-0.33-0.11-0.65-0.24-1.08-0.4
		c0.25-1.27,0.27-2.56,0.93-3.71c0.71-1.25,1.95-1.72,3.31-1.23c0.58,0.21,1.12,0.55,1.79,0.89c0.18-1,0.36-2,0.53-2.99
		c-0.34-0.25-0.61-0.46-0.89-0.66c-1.94-1.33-2.85-3.2-2.97-5.52c-0.11-2.21,0.15-4.4,0.46-6.58c0.2-1.4,0.45-2.79,0.71-4.41
		c0.29,0.45,0.47,0.72,0.64,1.01c1.97,3.34,4.39,6.3,7.51,8.64c2.5,1.88,5.26,3.2,8.39,3.64c4.1,0.57,7.73-0.54,10.96-3.05
		c2.84-2.21,4.86-5.09,6.43-8.28c0.82-1.66,1.51-3.39,2.23-5.1c1.13-2.7,2.24-5.4,3.36-8.1c0.12-0.29,0.23-0.58,0.34-0.87
		C536.1,439.25,536.05,439.2,536,439.14z"/>
	<path d="M370.08,444.93c-0.61,0-1.19,0-1.88,0c0.12-0.74,0.21-1.41,0.33-2.08c0.37-2.11,0.74-4.21,1.12-6.31
		c0.06-0.34,0.15-0.68,0.27-1c0.68-1.85,2.27-2.56,4.1-1.81c0.51,0.21,0.99,0.5,1.57,0.8c0.18-1.05,0.35-2.02,0.53-3.01
		c-0.3-0.22-0.55-0.41-0.8-0.59c-2.17-1.53-3.3-3.64-3.2-6.28c0.07-1.88,0.32-3.76,0.63-5.61c1.01-5.95,2.08-11.89,3.13-17.83
		c0.06-0.34,0.14-0.68,0.22-1.09c0.61,0,1.21,0,1.89,0c-0.1,0.84-0.18,1.61-0.27,2.38c-0.39,3.46-0.32,6.91,0.08,10.36
		c0.57,4.96,1.78,9.77,3.73,14.37c1.67,3.94,3.8,7.6,6.79,10.7c2.43,2.51,5.22,4.45,8.66,5.29c4.91,1.2,9.49,0.23,13.58-2.6
		c3.82-2.64,5.18-6.51,4.7-11.05c-0.37-3.56-1.87-6.7-3.77-9.67c-1.5-2.34-3.24-4.49-5.18-6.48c-7.4-7.6-14.81-15.19-22.23-22.77
		c-2.1-2.15-3.54-4.64-4.05-7.63c-0.57-3.29-0.05-6.46,1.24-9.51c2.46-5.82,6.61-10.12,12.05-13.22c4.54-2.59,9.45-3.75,14.68-3.41
		c3.12,0.2,6.15,0.92,9.15,1.78c2.84,0.82,5.67,1.67,8.53,2.4c1.05,0.27,2.18,0.33,3.27,0.33c1.97,0,3.33-0.99,4.02-2.85
		c0.2-0.53,0.34-1.07,0.53-1.66c0.59,0,1.18,0,1.89,0c-1.23,6.95-2.44,13.87-3.68,20.86c-0.65,0-1.29,0-1.95,0
		c-0.17-0.66-0.32-1.34-0.52-2c-1.41-4.56-4.23-8.11-7.98-10.95c-3.42-2.59-7.23-4.31-11.47-5.02c-3.81-0.64-7.46-0.2-10.91,1.6
		c-1.33,0.69-2.51,1.57-3.4,2.79c-1.55,2.13-1.84,4.42-0.5,6.72c0.71,1.21,1.58,2.36,2.55,3.38c4.04,4.24,8.14,8.41,12.23,12.6
		c4.42,4.53,8.85,9.05,13.27,13.57c3.5,3.58,5.47,7.86,5.96,12.83c0.57,5.77-0.78,11.14-3.54,16.15
		c-4.57,8.28-11.38,13.81-20.58,16.27c-5.02,1.34-10.09,1.24-15.16,0.19c-3.4-0.7-6.68-1.8-9.99-2.79c-1.44-0.43-2.91-0.8-4.38-1.13
		c-0.61-0.14-1.25-0.15-1.88-0.14c-1.6,0.02-2.58,0.76-3.11,2.27C370.27,444.37,370.18,444.64,370.08,444.93z"/>
	<path d="M310.82,444.98c-0.48,0-0.88,0-1.29,0c-0.15,0-0.31-0.03-0.58-0.06c0.13-0.8,0.26-1.56,0.39-2.32
		c0.37-2.07,0.7-4.15,1.12-6.22c0.57-2.82,2.67-3.73,5.14-2.25c0.21,0.13,0.42,0.25,0.67,0.4c0.06-0.16,0.12-0.27,0.14-0.39
		c0.16-0.86,0.31-1.72,0.47-2.6c-0.2-0.15-0.36-0.29-0.54-0.41c-2.65-1.76-3.74-4.27-3.45-7.37c0.19-2.06,0.51-4.12,0.86-6.16
		c0.97-5.64,1.98-11.27,2.98-16.9c0.03-0.18,0.09-0.36,0.15-0.57c0.64,0,1.24,0,1.9,0c-0.11,0.85-0.24,1.63-0.32,2.4
		c-0.33,3.17-0.32,6.35,0.01,9.52c0.53,5.19,1.73,10.22,3.76,15.04c1.64,3.92,3.74,7.56,6.67,10.66c2.49,2.63,5.37,4.7,8.96,5.5
		c5.37,1.21,10.27,0.04,14.51-3.46c2.34-1.93,3.48-4.57,3.7-7.6c0.23-3.07-0.54-5.93-1.81-8.68c-1.51-3.26-3.57-6.15-5.99-8.78
		c-2.24-2.43-4.57-4.78-6.87-7.15c-5.43-5.57-10.83-11.16-16.31-16.68c-4.24-4.27-5.41-9.29-3.87-15c1.17-4.34,3.58-7.95,6.77-11.05
		c3.93-3.82,8.55-6.37,13.94-7.5c3.47-0.73,6.94-0.62,10.42-0.01c3.6,0.64,7.06,1.81,10.57,2.81c1.54,0.44,3.1,0.84,4.67,1.13
		c0.92,0.17,1.89,0.17,2.82,0.06c1.52-0.18,2.61-1.06,3.2-2.47c0.27-0.63,0.45-1.3,0.68-1.98c0.58,0,1.16,0,1.87,0
		c-1.23,6.99-2.45,13.92-3.69,20.94c-0.33,0-0.64,0-0.94,0c-0.31,0-0.62,0-0.97,0c-0.09-0.35-0.16-0.65-0.23-0.95
		c-1.08-4.48-3.56-8.08-7.02-11.05c-3.71-3.18-7.97-5.25-12.81-6.06c-3.77-0.63-7.4-0.18-10.83,1.59c-1.13,0.59-2.14,1.32-2.99,2.27
		c-1.81,2.02-2.49,4.82-0.82,7.48c0.71,1.14,1.54,2.23,2.47,3.2c4.2,4.39,8.46,8.72,12.7,13.07c4.24,4.35,8.5,8.68,12.74,13.03
		c4.04,4.14,6.03,9.13,6.08,14.9c0.06,7.23-2.51,13.54-6.96,19.12c-4.89,6.12-11.18,10.06-18.89,11.64
		c-4.16,0.85-8.32,0.77-12.48,0.02c-3.79-0.68-7.43-1.9-11.1-3.02c-1.41-0.43-2.85-0.78-4.29-1.1c-0.61-0.14-1.25-0.15-1.88-0.15
		c-1.63,0.02-2.65,0.79-3.17,2.33C311,444.41,310.93,444.64,310.82,444.98z"/>
	<path d="M501.18,412.12c-0.2,1.14-0.37,2.25-0.59,3.36c-0.41,2.1-0.78,4.2-1.28,6.28c-0.82,3.43-2.83,5.99-5.91,7.69
		c-0.48,0.27-0.76,0.57-0.81,1.14c-0.06,0.62-0.21,1.24-0.31,1.86c-0.02,0.09,0,0.18,0,0.41c0.33-0.16,0.59-0.28,0.84-0.41
		c0.74-0.37,1.49-0.67,2.34-0.64c1.01,0.03,1.67,0.6,1.75,1.61c0.04,0.56,0.01,1.13-0.07,1.69c-0.13,0.93-0.36,1.85-0.48,2.79
		c-0.06,0.49-0.29,0.78-0.7,1.02c-5.28,3.17-10.9,5.46-16.93,6.72c-4.85,1.01-9.74,1.28-14.65,0.72
		c-16.93-1.94-28.68-13.48-31.83-28.28c-1.7-8-0.99-15.85,1.65-23.51c4.53-13.11,13.01-23.05,24.8-30.24
		c5.56-3.39,11.56-5.69,17.99-6.8c8.77-1.51,17.31-0.81,25.48,2.95c2.4,1.11,5.55,3.09,7.06,4.47c-1.33,7.53-2.67,15.1-4.02,22.79
		c-0.45,0-0.85,0-1.25,0c-15.65,0-31.3,0.01-46.95-0.02c-0.82,0-1.31,0.25-1.78,0.9c-4.67,6.42-8.3,13.34-10.37,21.04
		c-1.2,4.47-1.77,9.01-1.4,13.64c0.41,5.17,1.96,9.91,5.44,13.89c0.5,0.57,1.06,0.93,1.78,1.16c3.48,1.12,7.04,1.33,10.64,0.93
		c7.43-0.83,14.05-3.79,20.2-7.88c7.44-4.94,13.58-11.19,18.64-18.52c0.16-0.23,0.33-0.46,0.5-0.68
		C500.97,412.16,501.06,412.16,501.18,412.12z M503.22,385.73c0.06-0.12,0.13-0.2,0.14-0.29c0.63-3.83,1.06-7.67,0.61-11.55
		c-0.22-1.85-0.65-3.65-1.49-5.33c-1.3-2.58-3.35-4.2-6.17-4.83c-1.52-0.34-3.06-0.34-4.6-0.17c-2.49,0.28-4.86,1-7.18,1.92
		c-4.14,1.66-7.97,3.88-11.62,6.43c-5.32,3.71-10.14,7.98-14.36,12.9c-0.23,0.27-0.56,0.49-0.59,0.91
		C473.08,385.73,488.16,385.73,503.22,385.73z"/>
	<path d="M136.48,366.31c-8.04,0-15.97,0-23.98,0c-0.85,4.03-1.69,8.01-2.56,12.12c7.41,0,14.73,0,22.17,0
		c-0.34,1.63-0.65,3.12-0.98,4.69c-7.39,0-14.75,0-22.18,0c-0.97,4.54-1.92,9.02-2.9,13.65c8.15,0.01,16.21,0,24.39,0
		c-0.35,1.66-0.68,3.19-1.01,4.74c-9.89,0-19.7,0-29.5,0c-0.04-0.04-0.06-0.06-0.08-0.08c-0.02-0.03-0.05-0.06-0.04-0.08
		c2.78-13.19,5.57-26.37,8.36-39.56c0.03-0.12,0.1-0.23,0.17-0.37c9.69,0,19.38,0,29.2,0C137.18,363.05,136.84,364.63,136.48,366.31
		z"/>
	<path d="M73.96,371.06c-1.33,6.23-2.65,12.43-3.98,18.64c-1.84,0-3.6,0-5.49,0c2.83-13.34,5.66-26.63,8.48-39.9
		c0.68-0.23,3.96-0.29,5.46-0.09c-0.25,1.82-0.72,3.6-1.1,5.39c-0.38,1.85-0.78,3.69-1.17,5.54c-0.38,1.81-0.76,3.62-1.14,5.42
		c0.74,0.21,19.57,0.27,20.87,0.06c0.84-3.92,1.68-7.87,2.53-11.84c1.85,0,3.64,0,5.5,0c-2.84,13.36-5.67,26.66-8.52,40.05
		c-1.84,0.1-3.65,0.03-5.59,0.05c1.68-7.84,3.33-15.54,4.99-23.32C87.83,371.06,80.92,371.06,73.96,371.06z"/>
	<path d="M43.67,383.81c2.49-11.75,4.98-23.47,7.5-35.32c-4.55,0-8.98,0-13.53,0c0.35-1.65,0.67-3.17,0.99-4.71
		c10.88,0,21.69,0,32.6,0c-0.33,1.58-0.65,3.07-1,4.7c-2.27,0.03-4.52,0.01-6.77,0.01c-2.23,0-4.46,0-6.77,0
		c-2.51,11.8-5,23.53-7.51,35.32C47.36,383.81,45.55,383.81,43.67,383.81z"/>
	<path d="M574.82,451c-0.35,5.52-2.09,10.45-6.16,14.37c-3.44,3.32-7.61,4.65-12.35,4.28c-0.72-0.06-1.44-0.15-2.14-0.32
		c-3.9-0.94-6.46-3.69-6.85-7.7c-0.66-6.64,1.44-12.35,6.34-16.91c3.22-3,7.18-4.03,11.51-3.73c1.03,0.07,2.07,0.24,3.06,0.5
		c3.7,0.98,6.06,3.81,6.44,7.62C574.74,449.73,574.77,450.36,574.82,451z M558.56,466.4c3.75,0.05,6.54-1.35,8.64-4.19
		c1.15-1.56,2.08-3.22,2.69-5.05c0.77-2.34,1.29-4.74,0.82-7.22c-0.51-2.73-2.01-4.65-4.76-5.4c-1.48-0.4-2.99-0.41-4.49-0.13
		c-3.71,0.69-6.39,2.82-8.21,6.06c-1.22,2.17-1.88,4.52-2.16,6.98c-0.21,1.83-0.05,3.63,0.7,5.36c0.64,1.47,1.7,2.47,3.19,3.02
		C556.2,466.27,557.48,466.45,558.56,466.4z"/>
	<path class="st0" d="M230.29,372.69c-0.08,3.51-0.95,6.91-1.53,10.35c-1,5.89-2.06,11.76-3.11,17.64
		c-0.9,5.07-1.83,10.14-2.73,15.22c-0.86,4.83-1.71,9.66-2.56,14.49c-0.08,0.48-0.2,0.88-0.65,1.18
		c-5.22,3.49-10.79,6.21-16.96,7.57c-4.52,0.99-9.04,1.13-13.56-0.09c-1.28-0.34-2.26-0.96-3.08-2c-2.39-3-3.81-6.41-4.51-10.15
		c-1.03-5.49-0.5-10.9,0.86-16.26c1.99-7.82,5.61-14.86,10.37-21.34c4.72-6.41,10.04-12.27,16.26-17.28
		c2.77-2.24,5.72-4.23,8.93-5.79c1.9-0.93,3.86-1.71,6-1.87c0.77-0.06,1.58-0.02,2.34,0.15c1.44,0.32,2.45,1.23,3.07,2.57
		C230.27,368.85,230.33,370.76,230.29,372.69z"/>
	<path class="st0" d="M503.22,385.73c-15.07,0-30.14,0-45.27,0c0.03-0.42,0.36-0.64,0.59-0.91c4.23-4.92,9.05-9.18,14.36-12.9
		c3.65-2.55,7.47-4.78,11.62-6.43c2.32-0.93,4.69-1.64,7.18-1.92c1.54-0.18,3.08-0.17,4.6,0.17c2.82,0.63,4.87,2.25,6.17,4.83
		c0.85,1.68,1.27,3.48,1.49,5.33c0.46,3.88,0.03,7.72-0.61,11.55C503.35,385.53,503.28,385.61,503.22,385.73z"/>
	<path class="st0" d="M558.56,466.4c-1.09,0.05-2.36-0.13-3.58-0.58c-1.49-0.55-2.55-1.55-3.19-3.02c-0.75-1.72-0.91-3.53-0.7-5.36
		c0.28-2.45,0.94-4.81,2.16-6.98c1.82-3.24,4.5-5.37,8.21-6.06c1.5-0.28,3.02-0.27,4.49,0.13c2.76,0.75,4.25,2.67,4.76,5.4
		c0.47,2.49-0.05,4.88-0.82,7.22c-0.6,1.83-1.54,3.5-2.69,5.05C565.1,465.05,562.31,466.45,558.56,466.4z M565.32,455.36
		c1.8-0.77,2.69-2.09,3.04-3.79c0.44-2.12-0.83-3.83-2.98-4.07c-0.37-0.04-0.75-0.07-1.13-0.07c-2.24-0.01-4.47-0.01-6.71,0
		c-0.24,0-0.49,0.05-0.78,0.08c-1.07,5.03-2.13,10.03-3.2,15.06c1.09,0,2.09,0,3.1,0c0.43-1.97,0.84-3.9,1.26-5.84
		c1.41,0,2.73-0.05,4.04,0.02c1.02,0.05,1.38,0.55,1.26,1.58c-0.08,0.72-0.23,1.43-0.37,2.14c-0.14,0.71-0.17,1.41-0.07,2.1
		c1.85,0.16,2.94,0.11,3.52-0.18c-0.47-0.64-0.39-1.35-0.24-2.06c0.13-0.58,0.23-1.17,0.36-1.76
		C566.69,457.32,566.66,456.17,565.32,455.36z"/>
	<path d="M565.32,455.36c1.35,0.81,1.37,1.96,1.11,3.2c-0.12,0.58-0.23,1.17-0.36,1.76c-0.16,0.72-0.23,1.42,0.24,2.06
		c-0.58,0.29-1.67,0.34-3.52,0.18c-0.1-0.69-0.07-1.39,0.07-2.1c0.14-0.71,0.29-1.42,0.37-2.14c0.12-1.03-0.24-1.52-1.26-1.58
		c-1.31-0.07-2.63-0.02-4.04-0.02c-0.42,1.94-0.84,3.87-1.26,5.84c-1.01,0-2,0-3.1,0c1.07-5.03,2.13-10.03,3.2-15.06
		c0.29-0.03,0.54-0.08,0.78-0.08c2.24-0.01,4.47-0.01,6.71,0c0.38,0,0.75,0.03,1.13,0.07c2.14,0.24,3.41,1.95,2.98,4.07
		C568,453.26,567.12,454.58,565.32,455.36z M559.32,450.11c-0.29,1.36-0.56,2.64-0.84,3.99c1.54,0,3.02,0.07,4.49-0.02
		c1.27-0.08,2.01-0.96,2.11-2.26c0.09-1.1-0.3-1.64-1.39-1.69C562.28,450.06,560.86,450.11,559.32,450.11z"/>
	<path class="st0" d="M559.32,450.11c1.54,0,2.96-0.05,4.37,0.02c1.09,0.05,1.48,0.6,1.39,1.69c-0.1,1.29-0.84,2.17-2.11,2.26
		c-1.47,0.09-2.95,0.02-4.49,0.02C558.76,452.75,559.03,451.46,559.32,450.11z"/>
</g>
</svg>
